<!DOCTYPE svg PUBLIC "-//W3C//DTD SVG 1.1//EN" "http://www.w3.org/Graphics/SVG/1.1/DTD/svg11.dtd">
<!-- Uploaded to: SVG Repo, www.svgrepo.com, Transformed by: SVG Repo Mixer Tools -->
<svg width="256px" height="256px" viewBox="0 0 64.00 64.00" xmlns="http://www.w3.org/2000/svg" xmlns:xlink="http://www.w3.org/1999/xlink" aria-hidden="true" role="img" class="iconify iconify--emojione-monotone" preserveAspectRatio="xMidYMid meet" fill="#000000" transform="matrix(1, 0, 0, 1, 0, 0)rotate(0)" stroke="#000000" stroke-width="0.00064">
<g id="SVGRepo_bgCarrier" stroke-width="0" transform="translate(0,0), scale(1)">
<path transform="translate(0, 0), scale(2)" d="M16,29.92227021521992C18.129836942109847,30.438053234210205,19.916897368637088,28.17671443675822,21.884734714974478,27.212425216132807C23.90792201097365,26.22101314415977,26.176561594843626,25.708663222361164,27.79578484097049,24.14204239703402C29.566500151617927,22.42885090968272,31.451045640838366,20.347817783598384,31.52523811384237,17.885105201780572C31.59973684633143,15.412226776223992,29.84701686436381,13.208903111502451,28.180238820343273,11.380644726947153C26.77047632138661,9.83430199811445,24.159504671760395,9.913873119721734,22.804419290658366,8.319398363445588C21.117963054913975,6.33501277936374,22.086407572474695,2.1479508226711683,19.620941662830056,1.3092621857068067C17.265368822594596,0.5079563688552956,15.580034392843068,4.069211087735265,13.310914189828498,5.089949997567819C11.52121633803749,5.895026005326183,9.048690243690126,5.210805358868755,7.725675006645483,6.660217812769023C6.383824256565512,8.13026527252908,7.183214889258867,10.532385623837449,6.604716706489256,12.436839042004834C6.073221523803071,14.186555545106312,4.072931807334768,15.614282247896952,4.463097598331482,17.400833569852242C4.8622438965142765,19.228506223701174,7.217308407310212,19.8181488296282,8.511694670112114,21.168803966830126C9.58273905325668,22.286408224413993,10.436221553506417,23.507352223628725,11.442483006552376,24.683623125823008C12.969257123728733,26.468348122315433,13.71730552581572,29.369469658497074,16,29.92227021521992" fill="#ffffff" strokewidth="0"/>
</g>
<g id="SVGRepo_tracerCarrier" stroke-linecap="round" stroke-linejoin="round" stroke="#fffafa" stroke-width="0.768"/>
<g id="SVGRepo_iconCarrier">
<path d="M32 2C15.432 2 2 15.432 2 32s13.432 30 30 30s30-13.432 30-30S48.568 2 32 2m13.484 44.508h-4.017l-.609-3.622c-1.168 1.372-2.219 2.339-3.15 2.9c-1.601.979-3.569 1.47-5.905 1.47c-3.845 0-6.995-1.332-9.448-3.993c-2.56-2.676-3.839-6.335-3.839-10.978c0-4.695 1.292-8.459 3.878-11.292c2.585-2.833 6.004-4.249 10.256-4.249c3.688 0 6.65.935 8.888 2.805s3.521 4.203 3.849 6.998h-5.965c-.459-1.981-1.582-3.366-3.365-4.153c-.998-.434-2.107-.649-3.328-.649c-2.336 0-4.255.881-5.758 2.643c-1.502 1.762-2.254 4.41-2.254 7.946c0 3.563.814 6.085 2.441 7.565c1.627 1.479 3.478 2.22 5.551 2.22c2.035 0 3.701-.584 5-1.751c1.3-1.167 2.1-2.696 2.402-4.588h-6.713v-4.843h12.087v15.571z" fill="#2bcdc0"/>
</g>
</svg>